<?xml version="1.0" encoding="UTF-8" standalone="no"?>
<!-- Created with Inkscape (http://www.inkscape.org/) -->

<svg
   width="210mm"
   height="297mm"
   viewBox="0 0 210 297"
   version="1.1"
   id="svg1"
   inkscape:version="1.3 (0e150ed6c4, 2023-07-21)"
   sodipodi:docname="muttley.svg"
   xmlns:inkscape="http://www.inkscape.org/namespaces/inkscape"
   xmlns:sodipodi="http://sodipodi.sourceforge.net/DTD/sodipodi-0.dtd"
   xmlns="http://www.w3.org/2000/svg"
   xmlns:svg="http://www.w3.org/2000/svg">
  <sodipodi:namedview
     id="namedview1"
     pagecolor="#ffffff"
     bordercolor="#000000"
     borderopacity="0.25"
     inkscape:showpageshadow="2"
     inkscape:pageopacity="0.0"
     inkscape:pagecheckerboard="0"
     inkscape:deskcolor="#d1d1d1"
     inkscape:document-units="mm"
     inkscape:zoom="0.72426347"
     inkscape:cx="396.26464"
     inkscape:cy="561.25984"
     inkscape:window-width="1920"
     inkscape:window-height="1009"
     inkscape:window-x="-8"
     inkscape:window-y="-8"
     inkscape:window-maximized="1"
     inkscape:current-layer="layer1" />
  <defs
     id="defs1" />
  <g
     inkscape:label="Camada 1"
     inkscape:groupmode="layer"
     id="layer1">
    <path
       style="fill:#000000;stroke-width:2.54712"
       d="m 130.57903,292.1145 c -3.02515,-0.51374 -9.30662,-3.49793 -12.99515,-6.17343 -4.75648,-3.45015 -10.47854,-8.89449 -11.03927,-10.50356 -0.45782,-1.31323 -1.2487,-1.59169 -1.87982,-0.66155 -0.53715,0.79162 -8.441599,4.36278 -12.484947,5.64069 -2.145694,0.67812 -5.896444,1.17873 -10.421913,1.39097 -6.606027,0.31022 -7.259199,0.24526 -9.954348,-0.98045 -1.586455,-0.72161 -3.234711,-1.92088 -3.662913,-2.66516 -0.428484,-0.74429 -1.824118,-2.00103 -3.102017,-2.79284 -3.745173,-2.32054 -4.938669,-5.04655 -5.445819,-12.43848 -0.488532,-7.1205 -0.192581,-8.11865 2.913991,-9.84398 2.90298,-1.61212 5.149369,-1.34836 13.681026,1.60622 4.270286,1.47866 9.135444,2.9887 10.811533,3.35547 1.676018,0.36723 3.56653,0.80857 4.201143,0.98192 0.929103,0.25323 0.766057,-0.17624 -0.836372,-2.20897 -1.094755,-1.38819 -2.759782,-3.35224 -3.700162,-4.36444 l -1.709862,-1.84041 0.53133,2.20473 c 0.291866,1.21252 0.406867,2.31834 0.254017,2.45734 -0.45636,0.41563 -3.812469,-2.74901 -7.170398,-6.76148 -2.727249,-3.25875 -3.17502,-3.58999 -3.332235,-2.46509 -0.100439,0.7147 0.07643,2.34631 0.392309,3.62587 0.315886,1.27942 0.369747,2.32629 0.120103,2.32629 -0.249651,0 -2.379191,-1.68595 -4.732144,-3.74672 -5.315578,-4.65523 -9.499359,-10.48908 -12.38308,-17.2666 l -2.216211,-5.20876 -0.708342,3.2123 c -0.389763,1.76684 -0.719334,4.85677 -0.732791,6.86655 -0.02474,3.52909 -0.05603,3.60274 -0.918938,2.15321 -0.492317,-0.82547 -1.472386,-3.69798 -2.178502,-6.38335 -1.15425,-4.38924 -1.250574,-5.97558 -0.954179,-15.70627 0.181369,-5.95317 0.763003,-13.82126 1.292651,-17.48476 1.034673,-7.15675 1.335885,-20.65923 0.517937,-23.20353 -0.48795,-1.51807 -0.569907,-1.45091 -3.391235,2.77538 -3.536784,5.29857 -7.220926,8.94745 -11.166725,11.05963 -2.723361,1.45781 -3.463954,1.59251 -8.469616,1.53968 -7.557607,-0.0797 -14.123854,-2.40473 -18.83201,-6.66842 -4.1279923,-3.73828 -6.0437039,-11.34911 -4.6274929,-18.38462 0.9342076,-4.64073 3.7620369,-11.5249 5.7342309,-13.95944 l 1.47909,-1.82583 -2.920447,-4.07417 c -1.7209046,-2.40088 -3.362362,-5.56147 -3.9966176,-7.69527 -2.0153701,-6.78076 -0.206992,-10.92541 7.9263216,-18.17104 6.777245,-6.03728 10.442464,-8.71252 21.457168,-15.66166 8.945988,-5.643928 10.479089,-7.142026 11.767121,-11.498261 0.367855,-1.244881 0.806665,-2.589518 0.97469,-2.988314 0.167543,-0.399047 -0.19026,-0.882818 -0.795632,-1.075779 -0.605569,-0.192898 -1.443864,-0.496497 -1.862908,-0.674278 -0.564301,-0.239297 -0.761815,0.53759 -0.761815,2.99388 0,4.727973 -1.511611,5.055169 -6.502118,1.40742 -1.397259,-1.021225 -2.700057,-1.856849 -2.895019,-1.856849 -0.195132,0 -0.354678,0.74938 -0.354678,1.665209 0,1.225728 -0.285901,1.665219 -1.083339,1.665219 -1.936745,0 -3.742035,-1.650302 -6.150245,-5.622061 -2.268457,-3.741272 -2.379186,-3.834474 -2.766284,-2.329212 -0.67457,2.623272 -1.693557,4.620845 -2.35702,4.620845 -0.424118,0 -0.505491,-3.74797 -0.248997,-11.517745 0.541083,-16.394928 2.002966,-21.061115 7.335968,-23.41234 5.334221,-2.351819 15.204967,-1.105943 22.132578,2.793363 l 2.04992,1.153804 2.773138,-2.809138 c 3.062547,-3.102198 10.462843,-7.573764 14.080935,-8.508288 l 2.325693,-0.600567 -4.266327,-1.84399 c -5.658133,-2.445352 -10.591657,-3.550433 -16.151183,-3.617714 -6.289803,-0.07624 -3.406185,-1.102762 3.352098,-1.19351 5.971918,-0.08022 10.164405,0.995308 15.660665,4.017098 3.289293,1.80846 4.658304,2.243506 7.059766,2.243506 1.638606,0 3.154496,-0.159746 3.368774,-0.355302 0.214715,-0.195551 -1.031579,-2.880266 -2.768445,-5.966949 -2.49157,-4.428216 -4.135415,-6.504875 -7.791471,-9.843056 -2.54857,-2.326963 -6.125252,-5.021092 -7.948294,-5.986836 -2.543554,-1.347562 -2.889289,-1.668395 -1.486157,-1.379314 8.38097,1.726926 15.930353,9.019695 20.17429,19.488573 l 1.572082,3.878027 5.347285,1.091493 5.347283,1.091625 0.354468,-4.756141 c 0.642682,-8.616931 4.806994,-20.755926 8.725524,-25.434708 4.07181,-4.861868 11.68998,-5.300428 21.76988,-1.253235 8.74124,3.509733 17.75259,8.704367 22.63959,13.050716 5.09442,4.530894 10.67149,11.987129 10.67149,14.267424 0,1.379513 -0.22054,1.552988 -1.98077,1.559684 -1.08952,0.0052 -2.53247,0.142522 -3.2066,0.307574 -0.79926,0.19621 -2.55606,-0.483237 -5.04872,-1.950316 -2.10269,-1.237723 -3.93832,-2.250334 -4.07917,-2.250334 -0.14047,0 0.41415,1.311304 1.23393,2.914139 1.9162,3.747308 2.39542,6.110662 1.53562,7.573764 -1.4576,2.480352 -5.96174,0.906151 -10.32555,-3.6089 -1.37513,-1.422798 -2.572,-2.237939 -2.79771,-1.905372 -0.2169,0.319507 -1.06317,0.428217 -1.88062,0.241287 -1.80106,-0.411647 -1.82777,-0.200852 -0.2693,2.126243 1.47812,2.207977 1.63191,4.870286 0.28168,4.870286 -0.75332,0 -0.6325,0.477273 0.60848,2.406243 0.85159,1.323432 1.36603,2.572293 1.14316,2.775331 -0.22273,0.202842 -1.38611,0.369223 -2.58466,0.369223 -2.11243,0 -1.99526,0.112026 3.82215,3.655036 14.5986,8.890964 30.92898,27.576064 39.25352,44.913747 14.48279,30.16346 14.7066,66.77534 0.65432,106.99743 -1.36836,3.91655 -2.33696,7.25849 -2.15246,7.4264 0.67034,0.61052 6.33031,-3.41693 11.39156,-8.10526 6.07812,-5.63019 9.11193,-9.31255 14.95749,-18.1544 2.36042,-3.57031 4.60707,-6.58719 4.99246,-6.7042 1.07134,-0.32547 2.60068,2.85787 2.60068,5.41292 0,3.49004 -1.11252,6.98951 -4.03766,12.70046 -2.41275,4.71073 -2.57287,5.27516 -1.66742,5.87812 0.77944,0.51903 0.90457,1.13796 0.56408,2.79091 -0.3501,1.70095 -1.55098,3.12984 -6.02856,7.17525 -3.38762,3.06063 -7.03224,5.75284 -9.24789,6.83134 -2.01134,0.97899 -3.23179,1.78658 -2.71217,1.79472 0.51967,0.006 1.25975,0.30229 1.64484,0.65227 1.28626,1.17151 -0.7563,3.49643 -4.83612,5.50447 -3.52445,1.73482 -4.33535,1.90431 -9.63823,2.01448 l -5.79003,0.11995 -3.13134,5.35696 -3.13143,5.35698 -0.44252,-4.01333 -0.44254,-4.01332 -1.4324,1.59509 -1.43242,1.59494 -0.0292,-3.05282 c -0.0218,-1.67912 -0.19361,-3.61042 -0.3945,-4.29179 -0.32608,-1.1066 -0.61648,-0.89926 -2.72724,1.94278 -3.55773,4.79118 -5.54955,7.029 -10.36886,11.64965 l -4.39061,4.20946 0.41998,-2.1757 c 0.62813,-3.25227 1.23282,-14.10978 0.78622,-14.10978 -0.74292,0 -3.53699,4.55222 -5.39212,8.78497 -1.0267,2.3426 -2.79275,5.93897 -3.92448,7.99209 -1.13174,2.05306 -2.05771,3.86399 -2.05771,4.02427 0,0.69224 2.64165,0.098 13.50786,-3.03903 6.34501,-1.83173 11.96153,-3.33044 12.48106,-3.33044 0.51969,0 1.74713,0.43222 2.72776,0.95926 4.1079,2.20997 5.69927,9.82596 3.03338,14.51634 -0.97859,1.72155 -1.27562,2.94814 -1.01753,4.20113 0.58228,2.82564 -0.23946,5.1256 -2.76503,7.73848 -2.22386,2.3009 -2.64426,2.48412 -7.62719,3.32597 -4.82905,0.81574 -5.52095,1.10171 -8.20969,3.3922 -3.02465,2.57667 -4.38361,2.88969 -9.08123,2.09164 z m 8.26014,-4.86671 c 6.22354,-6.0864 3.16344,-14.5878 -5.30688,-14.74378 -1.87641,-0.0331 -1.93361,-0.0848 -0.70966,-0.62375 5.04428,-2.22058 12.61354,4.60685 11.57418,10.43977 l -0.35957,2.01787 2.45563,-0.29963 c 2.79886,-0.34205 6.75115,-2.5239 8.18726,-4.52002 1.24812,-1.73495 1.27163,-6.72535 0.0437,-9.40072 -1.17467,-2.56048 -3.23426,-3.31862 -7.99615,-2.94336 -3.17574,0.24989 -3.50916,0.1896 -2.53407,-0.46269 3.1644,-2.11532 8.99846,-1.4075 11.59914,1.40727 1.19127,1.28936 1.55839,1.43839 1.84845,0.75013 0.72201,-1.71368 0.33553,-6.08588 -0.70602,-7.97792 -1.73541,-3.1541 -3.09168,-3.2296 -12.39373,-0.68994 -4.50553,1.23011 -9.83367,2.39988 -11.84042,2.59962 -2.00668,0.19958 -4.26563,0.47992 -5.01983,0.62177 -1.85798,0.35133 -1.77558,-0.31022 0.80879,-6.48626 3.09736,-7.40214 3.1566,-7.61677 1.82785,-6.62365 -1.0179,0.76085 -1.05567,0.61912 -0.66526,-2.49779 0.22781,-1.8174 0.56263,-3.80398 0.74444,-4.41462 0.49931,-1.67755 -0.0218,-0.9739 -2.84581,3.88545 -1.42221,2.44244 -3.58618,5.92274 -4.80875,7.73419 l -2.2227,3.29349 -0.39012,-3.9436 c -0.34064,-3.44468 -0.88071,-4.77388 -4.26629,-10.50935 l -3.87587,-6.56594 -0.19287,3.60796 c -0.2351,4.4082 0.78374,11.14159 2.41406,15.94883 0.66889,1.97233 1.12838,3.6606 1.02109,3.7518 -0.2562,0.21743 -5.21868,-1.99439 -7.35643,-3.27904 l -1.67602,-1.00725 0.0292,5.19828 c 0.0728,12.05992 0.85311,14.04842 7.51809,19.15355 5.08074,3.8917 9.10401,6.08455 14.12106,7.69674 6.3531,2.04146 7.90189,1.88363 10.97086,-1.11766 z m -46.049822,-9.48571 c 4.488057,-0.92981 10.133922,-3.35587 11.629792,-4.99742 0.60339,-0.66287 0.60558,-2.60536 0.006,-9.54747 l -0.7499,-8.71537 -4.764436,-4.44062 c -2.620478,-2.4423 -5.618778,-5.5396 -6.663016,-6.88285 -1.044176,-1.34331 -1.893867,-2.34239 -1.888116,-2.22029 0.0057,0.12194 0.549525,2.09541 1.208519,4.38507 0.658702,2.28962 1.202763,4.40242 1.208516,4.69486 0.02184,0.96939 -5.543582,-4.37344 -7.199583,-6.91518 -1.450165,-2.22568 -1.649523,-2.35573 -1.830028,-1.19399 -0.133931,0.86063 1.701928,4.31502 5.400053,10.16146 3.081495,4.8716 5.435429,9.00994 5.230827,9.19621 -0.204525,0.18621 -0.371927,0.0465 -0.371927,-0.3089 0,-0.36725 -0.902464,-0.64764 -2.083909,-0.64764 -2.979735,0 -8.38874,-1.35589 -15.553608,-3.8989 -4.77636,-1.69517 -7.063079,-2.20692 -9.86295,-2.20692 -3.583193,0 -3.659959,0.0331 -4.528107,1.92494 -1.267119,2.76188 -1.091605,3.44257 0.529874,2.05525 1.24757,-1.06736 1.750445,-1.15155 4.294472,-0.71877 4.030149,0.68582 4.207263,1.16919 0.299001,0.81632 -3.955027,-0.35727 -4.610251,0.31951 -5.188497,5.35831 -0.423461,3.69163 0.741844,7.43053 2.860671,9.17688 1.165969,0.96102 1.197071,0.94068 1.197071,-0.7824 0,-2.01826 1.405891,-5.38382 2.860363,-6.84752 0.662487,-0.66672 1.866489,-0.99174 3.67359,-0.99174 3.098888,0 4.737056,0.65758 5.693305,2.28441 0.664524,1.1304 0.646328,1.12954 -1.111645,-0.0597 -4.149463,-2.79396 -8.288222,-0.24527 -8.15785,5.02427 0.107434,4.35173 1.914075,6.28023 6.793862,7.2532 3.108569,0.61978 11.796096,0.13052 17.06528,-0.96112 z m 18.881132,-22.5665 c -2.46865,-4.81911 -3.2957,-11.67935 -2.13689,-17.72458 0.95625,-4.98856 1.23924,-5.55068 1.85631,-3.68741 0.47309,1.42706 7.14921,12.16147 7.41415,11.92019 0.21107,-0.19219 -0.8502,-6.17741 -1.37702,-7.76905 -0.27003,-0.81645 -0.19578,-1.01929 0.23437,-0.64032 1.3428,1.18316 3.27481,7.9384 3.60729,12.61313 l 0.34864,4.89807 1.18857,-2.37231 c 1.88629,-3.76486 6.50042,-14.63464 8.78251,-20.68963 1.69888,-4.50729 2.03929,-5.08115 1.81089,-3.05287 -0.62522,5.55468 -2.23384,17.55138 -2.48538,18.53607 -0.14775,0.57804 -0.0582,0.828 0.20308,0.55483 2.40853,-2.53615 5.36301,-6.33809 8.25781,-10.6263 3.48675,-5.16487 4.40326,-6.1934 3.46252,-3.88545 -0.2795,0.68686 -0.69729,3.49692 -0.92765,6.24455 -0.4076,4.86558 -1.24731,10.7956 -1.92552,13.59926 -0.55389,2.29108 9.16674,-10.0349 16.40214,-20.79783 2.42497,-3.60717 2.73693,-3.52022 1.28582,0.35861 -0.62086,1.65933 -0.88027,4.00889 -0.76191,6.89849 l 0.17977,4.38222 2.57572,-4.16307 c 2.51288,-4.06157 3.51827,-4.17572 1.69064,-0.19219 -0.95829,2.0888 -1.20459,4.73803 -0.50003,5.37964 1.17198,1.0673 13.42603,-31.16197 15.79598,-41.54493 8.43132,-36.93854 7.21749,-66.49143 -3.72607,-90.7154 -2.08362,-4.61223 -7.13983,-13.829793 -9.91687,-18.078702 -6.11742,-9.359791 -18.00093,-21.538161 -26.94626,-27.614818 -4.04998,-2.751268 -11.76625,-7.077134 -12.62366,-7.077134 -0.17468,0 0.6405,0.965147 1.81052,2.144803 4.37859,4.413963 9.93949,14.75716 12.0627,22.436252 0.39814,1.439569 0.943,2.61737 1.21107,2.61737 0.26786,0 1.08063,-0.874202 1.8058,-1.942694 2.06665,-3.045519 2.03324,-2.280758 -0.0655,1.506387 -5.8209,10.501825 -12.25749,32.709926 -15.49022,53.445696 -2.43044,15.58905 -5.01335,39.45674 -4.33667,40.07301 0.0728,0.0662 0.91862,-1.76445 1.88316,-4.06515 1.95158,-4.65532 2.26907,-4.56842 3.30261,0.90442 0.89424,4.73505 3.16556,11.65648 3.82514,11.65648 0.28677,0 0.52041,-0.86551 0.52041,-1.92333 0,-3.64422 3.925,-12.39408 6.21503,-13.85492 1.20553,-0.76906 1.4412,-0.76356 2.43567,0.0597 0.60557,0.49915 1.10094,1.35353 1.10094,1.89874 0,0.54556 0.27367,1.14572 0.60922,1.33445 0.33553,0.1882 0.6092,0.0788 0.6092,-0.24526 0,-1.22155 1.30874,-0.52104 2.05785,1.10183 l 0.78018,1.68974 1.11928,-2.26061 c 0.61576,-1.2433 1.41691,-2.17545 1.78069,-2.07156 0.36392,0.10399 1.17634,1.61709 1.80549,3.36244 l 1.14403,3.17332 3.32635,-6.26074 c 9.99925,-18.82018 13.61142,-30.25601 14.60115,-46.22583 0.33262,-5.36844 0.50367,-6.23004 0.88172,-4.44061 0.70527,3.3405 0.62886,14.9598 -0.12655,19.10457 -0.89518,4.91463 -3.82193,13.60541 -6.73006,19.9844 -3.88867,8.53009 -11.61274,20.11347 -13.09792,19.64237 -0.37702,-0.11935 -1.13129,0.79717 -1.67609,2.03714 -1.27896,2.91117 -1.24149,3.93139 0.0896,2.44033 1.44303,-1.6163 3.79733,-2.87213 5.62409,-2.99986 5.55224,-0.38779 7.92321,1.19801 7.92321,5.30083 0,2.93383 -0.63469,4.28051 -3.1649,6.71771 -1.70419,1.64136 -1.76358,1.85519 -1.12046,4.03051 0.56191,1.89946 0.5044,2.63352 -0.33335,4.24008 -1.20284,2.3086 -3.98191,4.56391 -6.24668,5.06941 -0.89598,0.2002 -2.58409,0.94932 -3.75133,1.6651 -4.22269,2.58937 -11.7704,0.92099 -15.76128,-3.48389 -4.01437,-4.43101 -7.35549,-15.53896 -7.4092,-24.63356 l -0.0218,-3.60797 -1.71677,2.65542 c -2.25939,3.49475 -3.4305,4.52936 -2.93097,2.58938 1.18028,-4.58393 2.25203,-14.00464 2.83096,-24.88431 0.3632,-6.83293 0.57355,-12.50298 0.46728,-12.60016 -0.10697,-0.0974 -1.91439,1.80468 -4.01721,4.22623 -9.90944,11.41163 -25.806688,19.49084 -40.025062,20.34143 -5.346412,0.31952 -5.783485,0.4342 -5.785522,1.51116 -0.002,1.33245 -2.109974,4.69827 -3.579414,5.71712 -2.593949,1.79837 -5.55539,0.20417 -8.880682,-4.78159 -2.107944,-3.16021 -3.916545,-4.33655 -5.062711,-3.29271 -0.343399,0.31288 -0.22141,2.06976 0.313413,4.51511 1.329697,6.07652 0.787692,23.85421 -1.095108,35.91957 -0.648948,4.15862 -0.675369,12.33375 -0.05022,16.37463 l 0.427902,2.77533 0.953598,-4.53426 c 0.648223,-3.08232 0.798639,-5.39309 0.469826,-7.21595 -0.266465,-1.47491 -0.467278,-3.93053 -0.447264,-5.45699 l 0.03786,-2.77533 0.592396,2.49777 c 2.664128,11.2308 6.820659,20.83886 12.366655,28.58623 3.459593,4.8327 7.021276,9.0474 6.983283,8.26362 -0.09536,-1.95754 -2.67033,-10.89001 -4.463014,-15.47956 -1.192573,-3.05295 -2.329275,-6.67477 -2.5262,-8.04852 -0.293398,-2.04564 0.06478,-1.4918 1.974694,3.05924 1.283023,3.05647 3.662178,7.80233 5.287026,10.54645 2.838827,4.79418 8.88077,13.2344 9.239818,12.90738 0.09534,-0.0868 -0.219082,-1.77895 -0.698734,-3.76043 -0.479652,-1.98153 -1.131076,-6.10059 -1.447909,-9.15346 -0.316614,-3.05287 -0.729595,-6.54981 -0.917161,-7.77098 -0.187791,-1.22114 -0.165954,-1.84563 0.05096,-1.38765 2.94211,6.27956 10.67055,19.22103 9.115719,15.26453 -0.93492,-2.37914 -2.235514,-8.25057 -2.06061,-9.30249 0.149931,-0.89946 0.568449,-0.61846 2.227579,1.49188 3.219347,4.09616 12.096992,12.34554 17.758192,16.50138 2.84568,2.08905 5.23106,3.79829 5.30086,3.79829 0.0728,0 -0.67253,-1.56109 -1.65011,-3.46924 z M 95.764205,232.44506 c -5.24531,-9.50115 -9.729147,-22.61351 -9.6354,-28.17722 0.03639,-2.17974 0.184863,-1.88065 1.16412,2.34862 1.617061,6.98474 5.485139,17.28378 10.635975,28.31903 1.728277,3.70269 0.429434,2.20829 -2.164695,-2.49043 z M 86.10442,218.1775 c -1.248768,-2.12511 -3.725781,-11.52498 -4.606844,-17.48238 -0.526962,-3.56071 -0.860317,-9.75689 -0.807182,-14.98697 l 0.09098,-8.91642 0.473829,7.21593 c 0.850273,12.95904 2.76568,25.09109 5.148436,32.61048 0.878151,2.77117 0.764024,3.36741 -0.298417,1.55936 z m 92.52034,19.85263 c 1.89916,-0.63571 3.96479,-1.56128 4.59009,-2.05618 1.07009,-0.84657 0.90827,-0.91604 -2.7426,-1.17722 l -3.87981,-0.27773 4.57111,-2.14288 c 6.04516,-2.83401 11.84968,-6.79734 15.28913,-10.43951 2.54913,-2.69957 4.21417,-4.9389 4.21417,-5.66806 0,-0.15587 -2.26268,1.11463 -5.02821,2.82346 l -5.0282,3.10695 3.09782,-2.99864 c 5.0661,-4.90403 8.83455,-11.33791 10.92798,-18.65738 1.0235,-3.57888 1.212,-9.04199 0.31224,-9.04199 -0.32753,0 -2.08237,2.81006 -3.90097,6.24449 -7.32442,13.83213 -14.6107,21.50474 -25.41414,26.76167 l -3.76807,1.83353 -2.6547,6.30945 c -1.46005,3.47021 -2.65918,6.35453 -2.66449,6.40968 -0.006,0.0597 0.60702,0.22009 1.36158,0.36658 2.29644,0.4461 7.07477,-0.17643 10.71736,-1.39642 z m -34.67114,-27.62692 c 0.69874,-0.40302 0.50949,-0.65559 -0.91411,-1.21631 -3.30428,-1.30195 -6.8548,-3.77502 -8.14121,-5.67063 -1.94772,-2.87008 -1.53371,-3.03825 1.31633,-0.53428 4.62292,4.0611 10.05915,5.57657 13.75684,3.83513 2.1061,-0.99192 4.37509,-4.46143 4.37509,-6.69002 0,-1.28511 -0.22927,-1.41166 -2.59026,-1.43154 l -2.59027,-0.0199 2.13318,-0.83919 c 1.17322,-0.46137 3.16162,-1.75134 4.4187,-2.86622 1.83643,-1.6289 2.28551,-2.43481 2.28551,-4.10201 0,-1.14122 -0.26348,-2.22295 -0.58519,-2.40394 -0.32171,-0.18102 -2.3099,-0.47128 -4.4187,-0.64431 -3.54178,-0.29101 -4.01998,-0.19279 -6.27193,1.29819 -3.96023,2.62087 -3.86809,2.6462 -2.98579,-0.8209 0.87116,-3.4233 2.55017,-7.81857 3.34126,-8.74668 0.5044,-0.59193 -0.353,-2.38913 -0.90114,-1.88979 -0.16887,0.15369 -1.13399,2.01998 -2.14447,4.14697 l -1.83723,3.86721 -0.0218,-3.71395 c -0.0146,-2.04266 -0.25622,-3.84576 -0.54226,-4.0069 -0.56771,-0.3195 -1.87188,1.93308 -1.9935,3.44517 -0.0437,0.52035 -0.28604,-0.3646 -0.54224,-1.9653 -0.67327,-4.20245 -1.15277,-5.69304 -1.83098,-5.69304 -0.32899,0 -0.59829,0.29232 -0.59829,0.65027 0,0.35795 -0.36757,1.04455 -0.81643,1.52647 -1.1848,1.27173 -3.52533,6.86072 -5.01575,11.97718 l -1.29339,4.43989 -1.03099,-1.81568 c -0.56773,-0.99877 -1.83892,-4.62025 -2.82631,-8.04799 l -1.79546,-6.2321 0.35446,6.38331 c 0.95793,17.25023 5.4497,25.7212 14.68958,27.70273 3.10398,0.66566 3.97624,0.67966 5.01619,0.0802 z M 34.863519,187.57328 c 4.682927,-0.98279 14.043552,-9.86374 14.043552,-13.3239 v -1.82833 l -1.676133,1.42367 c -2.164694,1.83881 -4.301214,2.82935 -5.328382,2.47032 -0.447918,-0.15646 -1.85584,0.19878 -3.128694,0.78989 -8.017075,3.72253 -6.384737,-2.25675 2.487553,-9.11177 2.231998,-1.72447 3.830479,-3.13547 3.552344,-3.13547 -0.278329,0 -3.105008,0.5999 -6.281847,1.33278 -3.176841,0.73307 -6.735947,1.41769 -7.90918,1.52144 -2.567121,0.22671 -2.601207,-0.17304 -0.394713,-4.62424 l 1.56526,-3.15761 -2.870874,1.28313 c -3.216741,1.43779 -6.565432,2.02954 -8.277464,1.46264 -0.893282,-0.29564 -0.571142,-0.53294 1.487772,-1.0946 1.445364,-0.39443 3.317579,-0.95587 4.160405,-1.24767 1.521298,-0.52698 1.51265,-0.54092 -1.182944,-1.93527 -1.493523,-0.77245 -4.186838,-2.5076 -5.985199,-3.85589 -1.798411,-1.34822 -3.506958,-2.45131 -3.796836,-2.45131 -0.80503,0 -2.709483,3.71251 -4.274568,8.33281 -2.5395068,7.49695 -1.4783113,16.26719 2.496965,20.63629 2.048922,2.25185 7.274584,5.19979 11.200387,6.31833 3.09201,0.8811 6.527578,0.94726 10.112544,0.195 z m 32.151504,-11.19784 c 2.978348,-2.96346 2.287797,-6.04903 -2.268339,-10.13605 -1.672371,-1.50016 -3.040645,-2.92433 -3.040645,-3.16477 0,-0.68469 3.105045,-0.51704 8.207569,0.44412 4.389552,0.82682 4.754348,0.82139 5.855221,-0.0862 0.868103,-0.71544 1.174164,-1.70889 1.174164,-3.81106 0,-3.44054 -1.12016,-5.07612 -4.389217,-6.4091 -2.177111,-0.88766 -2.803352,-0.90814 -6.764406,-0.22074 -2.400815,0.41628 -4.781696,0.65758 -5.290825,0.53494 -0.509203,-0.12262 -1.679889,-0.37519 -2.601716,-0.56212 -2.475144,-0.50179 -2.068516,-1.57134 1.736603,-4.56874 7.189111,-5.66302 7.557875,-6.06035 7.557875,-8.14311 0,-2.55307 -2.24199,-4.25891 -5.597736,-4.25891 -4.569033,0 -8.47383,3.05095 -11.379926,8.89156 -1.693134,3.40274 -4.461594,6.65051 -5.669189,6.65051 -0.652371,0 -1.465463,-1.68563 -2.346524,-4.86419 -0.832435,-3.00317 -3.875009,-6.23727 -5.867842,-6.23727 -2.212113,0 -5.521081,1.42113 -6.267794,2.69188 -0.362179,0.61646 -0.658558,2.02906 -0.658558,3.13925 0,1.75867 0.51044,2.46543 3.961606,5.48735 4.65847,4.07888 5.178256,6.24403 1.733735,7.22229 -1.054958,0.29964 -5.695341,6.28316 -5.695341,7.34384 0,0.38313 4.854779,-0.28107 11.116503,-1.51852 2.929553,-0.57938 5.642702,-1.05306 6.029307,-1.05306 0.386633,0 -1.672741,2.2443 -4.57626,4.98736 -4.58856,4.33501 -7.017216,7.47035 -6.295554,8.12753 0.232111,0.21145 4.53978,-2.30536 7.383325,-4.31301 l 1.772513,-1.25145 -0.412835,1.49798 c -0.227088,0.82383 -0.24776,1.4979 -0.04367,1.4979 0.201533,0 1.537631,-0.87422 2.96942,-1.9427 1.43177,-1.06857 2.773851,-1.94275 2.982336,-1.94275 0.20831,0 0.214569,0.74937 0.0138,1.66521 -0.516117,2.35042 0.0138,2.08011 2.166623,-1.11011 1.031304,-1.52649 2.14272,-2.77541 2.469889,-2.77541 1.057134,0 4.555247,3.57575 6.106838,6.24225 0.872967,1.50028 2.029735,2.68921 2.742612,2.8188 0.678065,0.12334 1.390752,0.25786 1.583755,0.29963 0.193249,0.0397 0.915677,-0.48656 1.60599,-1.1733 z m 13.280076,-6.59735 c 8.910539,-1.41842 19.145981,-6.35633 28.424171,-13.71267 9.45367,-7.49547 12.9129,-12.19718 13.54715,-18.41332 0.69947,-6.85208 3.49819,-18.65393 6.58019,-27.74649 2.00034,-5.90105 2.2746,-9.13496 1.34201,-15.819544 -1.54559,-11.07866 -6.41933,-22.890725 -13.04799,-31.623529 -4.205,-5.539724 -5.13221,-6.200215 -9.20868,-6.559228 -3.03992,-0.267803 -3.4826,-0.177648 -3.75213,0.760981 -0.2722,0.94692 -0.89422,1.06458 -5.632392,1.06458 h -5.32654 l 1.653811,1.395952 c 2.095991,1.769151 1.9149,3.648142 -0.423604,4.394077 -2.493246,0.795319 -6.813825,-0.420265 -11.05034,-3.109688 -3.100707,-1.968212 -3.551173,-2.119678 -3.257049,-1.095071 0.187791,0.653596 0.09243,1.328868 -0.211076,1.499824 -0.304241,0.171023 -0.552437,1.11476 -0.552437,2.097343 0,3.826986 -2.981412,5.223335 -7.485703,3.506019 -1.97105,-0.751503 -6.532251,-4.881489 -6.532251,-5.914714 0,-0.304261 -0.213914,-0.552841 -0.474775,-0.552841 -0.261516,0 -0.828539,2.046698 -1.260735,4.548131 -0.83744,4.847352 -1.229351,5.799838 -3.552426,8.63483 -1.949431,2.378997 -3.072248,2.275855 -4.389302,-0.40303 l -1.085093,-2.207312 -1.462189,1.790959 c -0.97943,1.199741 -1.574474,2.844602 -1.802537,4.982711 -0.324696,3.04645 -0.277093,3.19162 1.055067,3.19162 1.799029,0 10.229436,7.950213 10.229436,9.646776 0,1.911602 -2.207777,1.717446 -5.213338,-0.458045 -1.490386,-1.078966 -3.022311,-1.964173 -3.404155,-1.967089 -1.64753,-0.01317 -3.397167,2.080966 -3.936648,4.710928 -0.309044,1.506789 -1.216585,3.64039 -2.016606,4.741423 -0.799963,1.101043 -8.27095,6.893927 -16.602028,12.873207 -8.331113,5.97921 -16.009237,11.70607 -17.062536,12.7263 -2.598143,2.51668 -4.4804472,6.10072 -4.9005689,9.33138 -0.9901933,7.61459 7.1789829,19.71926 17.2233129,25.52055 l 2.862249,1.65322 2.772354,-1.47969 c 2.201784,-1.17513 2.69041,-1.2851 2.373986,-0.53425 -0.218936,0.52034 -0.151542,0.94551 0.15081,0.94551 0.302129,0 0.739668,-0.54622 0.97226,-1.21366 0.340269,-0.97675 -0.09818,-1.62795 -2.244458,-3.33493 -1.46711,-1.16666 -4.27601,-2.91858 -6.242007,-3.89327 -7.594896,-3.76521 -12.532189,-9.45593 -11.701757,-13.48762 0.313993,-1.52489 1.280262,-2.54637 4.787524,-5.062 9.014782,-6.46583 21.908864,-10.3583 34.563106,-10.43394 7.983881,-0.0464 11.709829,0.71379 14.72797,3.01019 1.890863,1.43871 2.030029,1.77334 1.994654,4.79797 -0.02184,2.22057 -0.465823,4.00179 -1.388115,5.61834 -1.031733,1.8088 -1.202428,2.61823 -0.723846,3.43271 1.938151,3.2984 0.104961,5.68582 -8.06133,10.50136 -2.26127,1.33338 -4.111433,2.64474 -4.111433,2.91421 0,0.60984 3.19423,0.59061 9.14217,-0.0597 4.034595,-0.4375 4.876964,-0.3626 7.17791,0.63636 1.433716,0.62244 3.353634,2.02376 4.266356,3.11359 1.402273,1.6743 1.659495,2.52583 1.659495,5.49386 0,1.93181 0.163045,3.51238 0.36174,3.51238 0.19871,0 1.959514,-0.50047 3.912259,-1.11251 5.135336,-1.60907 12.122967,-5.17943 15.922196,-8.13547 3.822599,-2.97419 3.841889,-2.39669 -0.350101,-10.48075 -3.786625,-7.30311 -4.034968,-8.27057 -2.485598,-9.68157 2.389749,-2.17649 8.240648,-0.96741 13.429118,2.77507 l 2.32475,1.67694 0.64559,-1.81403 c 3.00631,-8.45082 3.17205,-22.60416 0.37484,-32.00634 -1.72601,-5.801764 -4.59818,-12.158884 -7.9866,-17.677197 l -2.24461,-3.655367 -1.15227,1.894435 -1.15212,1.894434 0.39815,-1.942758 c 2.52658,-12.336135 9.60425,-18.282205 16.25905,-13.659501 2.59973,1.805941 3.00565,2.83784 0.74785,1.900866 -0.83949,-0.348012 -1.64929,-0.521022 -1.79953,-0.38447 -0.14993,0.136554 0.6587,2.386755 1.79779,4.999548 4.43165,10.165745 6.10315,19.47929 5.64628,31.46205 -0.3137,8.22451 -2.43727,15.74186 -6.25119,22.12775 -1.24411,2.08329 -3.62083,6.16071 -5.28156,9.06086 -1.66074,2.90029 -4.62984,7.10551 -6.59809,9.3449 -7.720389,8.78405 -23.663758,16.18844 -34.857558,16.18844 -2.666925,0 -2.751274,0.19021 -1.145626,2.58873 1.2992,1.94064 1.858699,1.97764 10.094959,0.66646 z m -37.48285,-66.22715 c 0,-0.20217 1.448389,-0.9715 3.218669,-1.70962 3.84425,-1.60284 9.922468,-2.482205 16.58932,-2.399944 l 4.875841,0.05965 -6.704285,0.770064 c -5.917661,0.67964 -13.939265,2.23502 -16.945307,3.28555 -0.568669,0.19886 -1.034238,0.19621 -1.034238,-0.005 z m 7.888094,-4.985757 c 1.586426,-1.74098 8.164051,-3.505358 14.357816,-3.851445 l 6.094756,-0.340719 -7.008992,1.360487 c -3.854882,0.748332 -8.61584,1.866064 -10.579771,2.483934 -2.591005,0.815139 -3.376832,0.910462 -2.863809,0.347345 z m 28.768866,-7.482285 c -0.492025,-0.277748 0.58519,-0.882021 3.00172,-1.68456 3.007106,-0.998562 4.819595,-2.167679 8.954136,-5.775585 l 5.183952,-4.523667 -1.954339,2.902671 C 90.725385,87.837655 82.472165,92.773098 79.469209,91.082898 Z M 66.425204,90.431294 c -2.879274,-1.527074 -4.64759,-8.813741 -3.062931,-12.621305 0.396604,-0.953681 0.554256,-0.247253 0.604333,2.714811 0.06915,4.095915 1.281078,6.692005 3.292421,7.053539 0.897853,0.161082 4.055878,-4.580611 6.525832,-9.799109 1.89801,-4.010403 4.069473,-7.133147 6.705013,-9.642932 1.987754,-1.892778 2.478615,-2.081431 5.414319,-2.081431 1.775659,0 3.22837,0.179644 3.22837,0.39905 0,0.219413 -1.362459,1.655601 -3.027703,3.19162 -2.354007,2.171252 -3.833286,4.39865 -6.647003,10.008707 -4.139639,8.253742 -6.914925,11.38994 -10.054412,11.362108 -1.048996,-0.01321 -2.389118,-0.272444 -2.978102,-0.58466 z M 78.824845,83.95585 c 3.834814,-6.402196 5.539874,-8.577424 7.820294,-9.976957 2.516392,-1.544435 2.539392,-1.544835 4.589667,-0.07556 1.917667,1.373678 1.267769,2.120609 -1.857105,2.134661 -1.502716,0.0052 -2.563337,0.659561 -5.196765,3.20017 -1.81984,1.755364 -4.221376,4.502987 -5.336876,6.105756 -2.970131,4.267539 -2.980029,3.555206 -0.02184,-1.387665 z m -9.517077,81.25827 c -1.483938,-0.93021 -5.750244,-2.2278 -6.14441,-1.86879 -0.590503,0.53759 3.78656,2.60405 5.534925,2.61307 1.709227,0.0139 1.743699,-0.0331 0.60928,-0.74428 z M 107.22725,147.3728 c 1.02066,-1.22116 2.4613,-3.30843 3.20123,-4.63828 l 1.34557,-2.41805 -1.41682,-1.38143 c -2.12932,-2.07632 -4.19168,-2.8564 -8.65173,-3.27263 -5.008769,-0.46732 -5.043564,-0.30889 -1.40083,6.36753 1.4517,2.6608 2.96375,5.68497 3.36014,6.72051 0.40613,1.06133 0.93571,1.6558 1.21368,1.36268 0.27076,-0.2857 1.3281,-1.51918 2.34876,-2.74033 z m 13.33703,-24.96705 1.3594,-5.00684 -1.9205,-1.47093 -1.9205,-1.47099 -0.14993,2.30356 c -0.29332,4.5195 -1.39768,14.76273 -1.69676,15.74054 -0.1674,0.54688 0.43234,-0.37386 1.33203,-2.04683 0.89999,-1.6729 2.24819,-5.2948 2.9959,-8.04851 z m 2.08943,-14.63572 c 0,-7.998009 -0.0364,-8.259047 -1.37126,-8.843644 -1.33815,-0.587972 -1.34041,-0.603214 -0.0917,-0.639674 l 1.27956,-0.03973 -1.0671,-5.704457 c -0.58665,-3.137456 -1.38756,-6.788386 -1.77922,-8.113277 l -0.71256,-2.408759 -2.54762,0.36657 c -3.57774,0.514391 -6.62277,1.390384 -7.98247,2.295873 -1.11797,0.744543 -1.05078,0.989277 1.83237,6.67457 1.87763,3.702565 3.4096,6.011096 4.11111,6.195178 0.77158,0.202176 0.89335,0.419605 0.39303,0.701724 -0.5437,0.306251 -0.29114,2.236746 1.00582,7.705406 1.66502,7.01881 1.81271,7.34832 3.87346,8.64 1.17839,0.73858 2.34818,1.35797 2.59958,1.37627 0.25184,0.0199 0.45709,-3.67519 0.45709,-8.20787 z M 53.59999,86.592508 c 1.678702,0 1.708233,-0.188925 0.355917,-2.273468 -0.574853,-0.886598 -1.534989,-1.612116 -2.133126,-1.612116 -0.889511,0 -1.087617,0.475282 -1.087617,2.608884 0,2.029065 0.162752,2.460797 0.731409,1.942691 0.402207,-0.36657 1.362154,-0.665991 2.133147,-0.665991 z m 57.70053,-4.107846 c 1.29789,-0.488542 3.27022,-0.887792 4.38273,-0.887792 1.11252,0 2.18071,-0.233332 2.37381,-0.517043 0.35155,-0.51837 -2.38414,-7.727618 -3.22226,-8.490921 -0.24528,-0.223388 -1.44828,-0.153778 -2.67367,0.154457 -2.468,0.620453 -4.85651,2.896506 -6.73428,6.416382 l -1.23545,2.315959 1.37411,1.757549 c 1.22686,1.569161 1.48132,1.67078 2.3746,0.948644 0.55026,-0.444791 2.06236,-1.208424 3.36041,-1.696701 z M 59.774125,70.356605 c 0.691382,-1.602703 1.850351,-4.974823 2.575427,-7.493424 0.725155,-2.518666 1.484709,-4.579351 1.687836,-4.579351 0.203206,0 1.613057,1.100111 3.133023,2.444755 4.214075,3.727887 9.65023,5.979812 9.842747,4.077356 0.163047,-1.612912 -0.24747,-3.085691 -1.648868,-5.912794 -0.817448,-1.649304 -1.369738,-3.104716 -1.227444,-3.23444 0.141942,-0.129269 1.174892,0.897799 2.294325,2.283211 2.462965,3.047909 3.20741,3.259432 1.968683,0.559469 -0.505855,-1.101503 -0.786149,-2.123525 -0.624493,-2.27128 0.162314,-0.147831 1.908563,0.592612 3.88096,1.645723 1.972468,1.052781 5.157315,2.449528 7.077525,3.103853 7.619845,2.596488 7.86862,0.856901 0.550255,-3.849655 -2.933084,-1.886348 -4.647168,-3.263077 -3.809196,-3.059441 0.837971,0.204167 3.470819,0.840461 5.850519,1.415108 5.081762,1.226985 11.339676,1.624646 11.662986,0.740965 0.23947,-0.654923 -1.94228,-2.206386 -5.324003,-3.785225 -3.465434,-1.618015 -10.357143,-3.019071 -14.900736,-3.029279 -4.359232,-0.01318 -12.45905,1.86129 -16.792004,3.878955 -5.432392,2.529603 -11.846077,9.50028 -14.089247,15.312781 -2.220738,5.754433 -1.319306,5.43181 2.469197,-0.883812 l 2.497234,-4.163065 -0.388452,3.657156 c -0.374696,3.526504 0.268356,6.05657 1.538744,6.05657 0.284661,0 1.082972,-1.311301 1.774363,-2.914071 z M 47.53571,65.135655 c 6.923171,-0.625756 3.661943,-2.219842 -4.113988,-2.010903 -5.53007,0.148489 -10.02101,1.053842 -11.092798,2.236082 -0.715037,0.788691 -0.199567,0.836948 5.302769,0.496494 3.352157,-0.207479 7.808941,-0.53229 9.904017,-0.721607 z m 62.01426,-21.56994 c 2.16709,-0.80155 3.10085,-1.358034 2.29214,-1.36579 -1.87363,-0.01996 -7.34006,1.928837 -8.84104,3.148796 -1.20568,0.979996 -1.22162,0.971844 -0.76031,-0.38712 1.65441,-4.871811 9.4632,-13.003053 14.92403,-15.540281 3.17786,-1.476557 3.11141,-1.831063 -0.14849,-0.792535 -4.00833,1.276833 -7.76628,3.89851 -11.36703,7.929729 -3.97311,4.448233 -5.527,7.458488 -5.998722,11.620558 l -0.355188,3.134213 3.29905,-3.197718 c 2.3808,-2.307737 4.31666,-3.574096 6.95577,-4.550315 z"
       id="path2" />
  </g>
</svg>
